<?xml version="1.0" encoding="UTF-8"?>
<svg id="Layer_1" data-name="Layer 1" xmlns="http://www.w3.org/2000/svg" version="1.1" viewBox="0 0 4000 4000">
  <defs>
    <style>
      .cls-1 {
        fill: none;
        stroke: #000;
        stroke-miterlimit: 10;
        stroke-width: 30px;
      }
    </style>
  </defs>
  <g>
    <path class="cls-1" d="M942,2170c-91.4,8.2-214.6,52.1-185.6,302.6,44.4,382.7,321.5,390.3,403.2,406.8,0,0,152.5,681.5,993.2,616.2,840.6-65.2,702.8-716.2,696.7-1147.8-2-143.3,1.9-321.6-12.1-498"/>
    <path class="cls-1" d="M1005.3,1490.3"/>
  </g>
  <g>
    <path class="cls-1" d="M1895.3,2793.7s218.4,94,399.8,74c0,0,49.1,240.4-224.9,206.6-274-33.8-175-280.6-175-280.6Z"/>
    <g>
      <path class="cls-1" d="M2045.1,2842.8c-86.5-22-149.8-49.1-149.8-49.1,0,0-99,246.7,175,280.6,62.1,7.7,106.9.8,140.1-13.7"/>
      <path class="cls-1" d="M2254,2798"/>
    </g>
    <path class="cls-1" d="M2204.3,2869c-156.2-9.8-309-75.3-309-75.3,0,0-14.1,35.3-16.9,80.9,105,36.4,214.1,56,324.8,66.3,0-24,.3-48,1.1-71.9h0Z"/>
  </g>
  <path class="cls-1" d="M1992.1,1951.7l-.9-1.5c-73.5-37.2-302.6-9.8-457,73.5-2.7,42,36.2,78,76.8,89.1s83.7,3.3,125.1-4.6c72.8-13.9,139.2-35.8,208.8-53.7,44.9-11.5,70.2-62.6,47.3-102.9h0Z"/>
  <path class="cls-1" d="M2266.5,1948.4l.4-.8c125-48.3,277.9-28.4,419.5,44.3,2.3,41.3-33.5,79.2-70.8,92.7-37.3,13.5-76.9,8.4-114.9,3.2-63.7-8.7-122.1-25.1-182.7-38.1-45.6-9.8-73.1-59.9-51.6-101.2h0Z"/>
  <path class="cls-1" d="M1711.7,2324.9c-2.8,60.5,44.1,111.8,104.6,114.6,60.5,2.8,111.8-44.1,114.6-104.6,2.8-60.5-44.1-111.8-104.6-114.6-60.5-2.8-111.8,44.1-114.6,104.6h0Z"/>
  <path class="cls-1" d="M2295.2,2324.9c-2.8,60.5,44.1,111.8,104.6,114.6,60.5,2.8,111.8-44.1,114.6-104.6,2.8-60.5-44.1-111.8-104.6-114.6-60.5-2.8-111.8,44.1-114.6,104.6h0Z"/>
  <path class="cls-1" d="M865.9,2333.8c-29.3,101.3,12.2,208,53.1,305.2,12.1,28.9,25.5,59.4,51.4,77,25.9,17.7,68.1,15,81.7-13.2,13.1-27.3-6.3-58.1-21.4-84.3-15.2-26.2-23.7-65.6,1.7-82,11.8-7.6,27.4-7,39.9-13.6,27.1-14.3,26.9-53,19.9-82.9-9.7-41.3-25-81.3-45.6-118.5-20.1-36.4-51.9-73.8-93.6-73.1-43.6.7-75,43.4-87.1,85.3Z"/>
  <path class="cls-1" d="M2270.8,2641.9c9.3,5.4,14.1,18.1,9.2,34.8-4.6,16.4-19.7,35.5-42.4,46.3-22.7,10.9-47.1,10.6-62.7,3.9-16-6.7-22.9-18.4-21.2-29.1,5.2-21.7,28-35.5,49.6-46.8,22.4-9.7,47.4-18.7,67.5-9.1h0Z"/>
  <path class="cls-1" d="M2887.9,1504.5c225.1-193.1,358.4-463.3,277.6-775.8-122.1,55.1-237.4,100.1-359.5,155.2,128-115.5,155.7-220.4,146.5-383.9,0,0-1514.8,325-1836.5,570.7-94.9,72.5-148.6,140.4-177.4,213.4l-230.2-283s-137.5,341.9,131.1,459.4c-57.2,39.7-111.3,105.1-138.8,213-74.2,291.1,142.4,525.9,142.4,525.9,0,0,80.8-58,192-18.8,97.5,34.4,206.8,208.2,201.2,380.2l89.6-11.8-11.6-362s118.7-87.7,220.9-389.5c160.2,79.8,352.5,117.3,503.2,94.1l-279.9-271.7c253.3,183,453.4,253.2,765.6,268.2s643.7-120.1,802.6-389.2c-134.4,7.5-304.5-1.9-438.9,5.6h0Z"/>
</svg>