<?xml version="1.0" encoding="UTF-8"?>
<svg id="Layer_1" data-name="Layer 1" xmlns="http://www.w3.org/2000/svg" version="1.1" viewBox="0 0 144.75 162.69">
  <defs>
    <style>
      .cls-1 {
        fill: none;
        stroke: #010101;
        stroke-miterlimit: 10;
        stroke-width: 2px;
      }
    </style>
  </defs>
  <g>
    <path class="cls-1" d="M15.38,90.55c-4.89.44-11.48,2.79-9.93,16.19,2.37,20.47,17.2,20.88,21.57,21.76,0,0,8.16,36.45,53.13,32.96,44.96-3.49,37.59-38.31,37.27-61.4-.11-7.67.1-17.2-.65-26.64"/>
    <path class="cls-1" d="M18.76,54.19"/>
  </g>
  <g>
    <path class="cls-1" d="M66.37,123.91s11.68,5.03,21.39,3.96c0,0,2.63,12.86-12.03,11.05-14.66-1.81-9.36-15.01-9.36-15.01h0Z"/>
    <g>
      <path class="cls-1" d="M74.38,126.54c-4.63-1.18-8.01-2.63-8.01-2.63,0,0-5.3,13.2,9.36,15.01,3.32.41,5.72.04,7.49-.73"/>
      <path class="cls-1" d="M85.56,124.14"/>
    </g>
    <path class="cls-1" d="M82.9,127.94c-8.36-.52-16.53-4.03-16.53-4.03,0,0-.75,1.89-.9,4.33,5.62,1.95,11.45,3,17.37,3.55,0-1.28.02-2.57.06-3.85h0Z"/>
  </g>
  <path class="cls-1" d="M71.55,78.87l-.05-.08c-3.93-1.99-16.19-.52-24.44,3.93-.14,2.25,1.94,4.17,4.11,4.77s4.48.18,6.69-.25c3.89-.74,7.45-1.91,11.17-2.87,2.4-.62,3.75-3.35,2.53-5.5h0Z"/>
  <path class="cls-1" d="M86.23,78.7l.02-.04c6.69-2.58,14.86-1.52,22.44,2.37.12,2.21-1.79,4.24-3.79,4.96s-4.11.45-6.15.17c-3.41-.47-6.53-1.34-9.77-2.04-2.44-.52-3.91-3.2-2.76-5.41h0Z"/>
  <path class="cls-1" d="M56.55,98.84c-.15,3.24,2.36,5.98,5.6,6.13s5.98-2.36,6.13-5.6c.15-3.24-2.36-5.98-5.6-6.13-3.24-.15-5.98,2.36-6.13,5.6h0Z"/>
  <path class="cls-1" d="M87.76,98.84c-.15,3.24,2.36,5.98,5.6,6.13s5.98-2.36,6.13-5.6-2.36-5.98-5.6-6.13c-3.24-.15-5.98,2.36-6.13,5.6h0Z"/>
  <path class="cls-1" d="M11.31,99.31c-1.57,5.42.65,11.13,2.84,16.33.65,1.55,1.36,3.18,2.75,4.12,1.39.95,3.64.8,4.37-.71.7-1.46-.34-3.11-1.14-4.51-.81-1.4-1.27-3.51.09-4.39.63-.41,1.47-.37,2.13-.73,1.45-.76,1.44-2.83,1.06-4.43-.52-2.21-1.34-4.35-2.44-6.34-1.08-1.95-2.78-3.95-5.01-3.91-2.33.04-4.01,2.32-4.66,4.56h0Z"/>
  <path class="cls-1" d="M86.46,115.79c.5.29.75.97.49,1.86-.25.88-1.05,1.9-2.27,2.48-1.21.58-2.52.57-3.35.21-.86-.36-1.22-.98-1.13-1.56.28-1.16,1.5-1.9,2.65-2.5,1.2-.52,2.54-1,3.61-.49h0Z"/>
  <path class="cls-1" d="M119.46,54.95c12.04-10.33,19.17-24.78,14.85-41.5-6.53,2.95-12.7,5.35-19.23,8.3,6.85-6.18,8.33-11.79,7.84-20.53,0,0-81.03,17.38-98.23,30.53-5.08,3.88-7.95,7.51-9.49,11.41L2.88,28.03s-7.35,18.29,7.01,24.57c-3.06,2.12-5.95,5.62-7.42,11.39-3.97,15.57,7.62,28.13,7.62,28.13,0,0,4.32-3.1,10.27-1.01,5.22,1.84,11.06,11.14,10.76,20.34l4.79-.63-.62-19.36s6.35-4.69,11.82-20.83c8.57,4.27,18.86,6.27,26.92,5.03l-14.97-14.53c13.55,9.79,24.25,13.54,40.95,14.35,16.7.8,34.43-6.42,42.93-20.82-7.19.4-16.29-.1-23.48.3h0Z"/>
</svg>